<mxfile host="app.diagrams.net" modified="2022-11-12T03:38:56.565Z" agent="5.0 (Windows NT 10.0; Win64; x64) AppleWebKit/537.36 (KHTML, like Gecko) Chrome/107.0.0.0 Safari/537.36" etag="j8AbtkgAHaM3FsbS5wmd" version="20.5.1" type="github" pages="2">
  <diagram id="EVjNSl5tLCOyTml6J_e6" name="Page-1">
    <mxGraphModel dx="1038" dy="579" grid="1" gridSize="10" guides="1" tooltips="1" connect="1" arrows="1" fold="1" page="1" pageScale="1" pageWidth="1100" pageHeight="850" math="0" shadow="0">
      <root>
        <mxCell id="0" />
        <mxCell id="1" parent="0" />
        <mxCell id="mjxQvoA_iEbA1KFyeB2W-1" value="" style="group" vertex="1" connectable="0" parent="1">
          <mxGeometry x="105" y="270" width="890" height="403" as="geometry" />
        </mxCell>
        <mxCell id="n5xv7NCP7jcm4QG3g1wA-5" value="PPE DB" style="shape=datastore;whiteSpace=wrap;html=1;" vertex="1" parent="mjxQvoA_iEbA1KFyeB2W-1">
          <mxGeometry x="734.1082802547771" y="110.69527896995709" width="155.89171974522293" height="155.66523605150215" as="geometry" />
        </mxCell>
        <mxCell id="n5xv7NCP7jcm4QG3g1wA-12" value="" style="shape=flexArrow;endArrow=classic;startArrow=classic;html=1;rounded=0;entryX=-0.009;entryY=0.454;entryDx=0;entryDy=0;entryPerimeter=0;" edge="1" parent="mjxQvoA_iEbA1KFyeB2W-1">
          <mxGeometry width="100" height="100" relative="1" as="geometry">
            <mxPoint x="596.640127388535" y="195.44635193133047" as="sourcePoint" />
            <mxPoint x="731.9399681528663" y="195.23879828326181" as="targetPoint" />
          </mxGeometry>
        </mxCell>
        <mxCell id="n5xv7NCP7jcm4QG3g1wA-28" value="" style="group" vertex="1" connectable="0" parent="mjxQvoA_iEbA1KFyeB2W-1">
          <mxGeometry y="22.484978540772534" width="174.31528662420382" height="103.77682403433477" as="geometry" />
        </mxCell>
        <mxCell id="n5xv7NCP7jcm4QG3g1wA-10" value="&lt;span style=&quot;background-color: rgb(255, 250, 252);&quot;&gt;API &lt;b&gt;#1&lt;/b&gt;&lt;/span&gt;" style="shape=process;whiteSpace=wrap;html=1;backgroundOutline=1;labelBackgroundColor=#FF66FF;" vertex="1" parent="n5xv7NCP7jcm4QG3g1wA-28">
          <mxGeometry width="170.06369426751593" height="103.77682403433477" as="geometry" />
        </mxCell>
        <mxCell id="n5xv7NCP7jcm4QG3g1wA-29" value="" style="group" vertex="1" connectable="0" parent="mjxQvoA_iEbA1KFyeB2W-1">
          <mxGeometry y="160.8540772532189" width="174.31528662420382" height="103.77682403433477" as="geometry" />
        </mxCell>
        <mxCell id="n5xv7NCP7jcm4QG3g1wA-31" value="&lt;span style=&quot;background-color: rgb(255, 250, 252);&quot;&gt;API &lt;b&gt;#2&lt;/b&gt;&lt;/span&gt;" style="shape=process;whiteSpace=wrap;html=1;backgroundOutline=1;labelBackgroundColor=#FF66FF;" vertex="1" parent="n5xv7NCP7jcm4QG3g1wA-29">
          <mxGeometry width="170.06369426751593" height="103.77682403433477" as="geometry" />
        </mxCell>
        <mxCell id="n5xv7NCP7jcm4QG3g1wA-32" value="" style="group" vertex="1" connectable="0" parent="mjxQvoA_iEbA1KFyeB2W-1">
          <mxGeometry y="299.22317596566523" width="174.31528662420382" height="103.77682403433477" as="geometry" />
        </mxCell>
        <mxCell id="n5xv7NCP7jcm4QG3g1wA-34" value="&lt;span style=&quot;background-color: rgb(255, 250, 252);&quot;&gt;API &lt;b&gt;#3&lt;/b&gt;&lt;/span&gt;" style="shape=process;whiteSpace=wrap;html=1;backgroundOutline=1;labelBackgroundColor=#FF66FF;" vertex="1" parent="n5xv7NCP7jcm4QG3g1wA-32">
          <mxGeometry width="170.06369426751593" height="103.77682403433477" as="geometry" />
        </mxCell>
        <mxCell id="n5xv7NCP7jcm4QG3g1wA-37" value="" style="group" vertex="1" connectable="0" parent="mjxQvoA_iEbA1KFyeB2W-1">
          <mxGeometry x="359.96815286624206" width="235.2547770700637" height="383.9742489270387" as="geometry" />
        </mxCell>
        <mxCell id="n5xv7NCP7jcm4QG3g1wA-35" value="" style="shape=note;whiteSpace=wrap;html=1;backgroundOutline=1;darkOpacity=0.05;labelBackgroundColor=none;fillStyle=solid;fontSize=18;fillColor=#d5e8d4;strokeColor=#82b366;" vertex="1" parent="n5xv7NCP7jcm4QG3g1wA-37">
          <mxGeometry width="235.2547770700637" height="383.9742489270387" as="geometry" />
        </mxCell>
        <mxCell id="n5xv7NCP7jcm4QG3g1wA-7" value="Business logic #1&lt;br&gt;Business logic #2&lt;br&gt;Business logic #3" style="rounded=0;whiteSpace=wrap;html=1;labelBackgroundColor=none;fillStyle=solid;fillColor=#f8cecc;strokeColor=#b85450;" vertex="1" parent="n5xv7NCP7jcm4QG3g1wA-37">
          <mxGeometry x="46.76751592356688" y="160.85407725321892" width="141.71974522292993" height="115.88412017167384" as="geometry" />
        </mxCell>
        <mxCell id="n5xv7NCP7jcm4QG3g1wA-8" value="Data Access" style="rounded=0;whiteSpace=wrap;html=1;fillColor=#fff2cc;strokeColor=#d6b656;" vertex="1" parent="n5xv7NCP7jcm4QG3g1wA-37">
          <mxGeometry x="46.76751592356688" y="298.3583690987125" width="141.71974522292993" height="51.88841201716739" as="geometry" />
        </mxCell>
        <mxCell id="n5xv7NCP7jcm4QG3g1wA-36" value="Stored Procedure" style="rounded=0;whiteSpace=wrap;html=1;labelBackgroundColor=none;fillStyle=solid;fontSize=18;fillColor=none;fontStyle=1;verticalAlign=middle;strokeColor=none;" vertex="1" parent="n5xv7NCP7jcm4QG3g1wA-37">
          <mxGeometry x="36.847133757961785" y="39.781115879828334" width="161.56050955414014" height="72.64377682403435" as="geometry" />
        </mxCell>
        <mxCell id="n5xv7NCP7jcm4QG3g1wA-39" value="" style="endArrow=classic;startArrow=classic;html=1;rounded=0;fontSize=18;" edge="1" parent="mjxQvoA_iEbA1KFyeB2W-1">
          <mxGeometry width="50" height="50" relative="1" as="geometry">
            <mxPoint x="171.48089171974522" y="349.38197424892707" as="sourcePoint" />
            <mxPoint x="354.29936305732485" y="349.38197424892707" as="targetPoint" />
          </mxGeometry>
        </mxCell>
        <mxCell id="n5xv7NCP7jcm4QG3g1wA-40" value="" style="endArrow=classic;startArrow=classic;html=1;rounded=0;fontSize=18;" edge="1" parent="mjxQvoA_iEbA1KFyeB2W-1">
          <mxGeometry width="50" height="50" relative="1" as="geometry">
            <mxPoint x="174.31528662420382" y="214.47210300429185" as="sourcePoint" />
            <mxPoint x="357.13375796178343" y="214.47210300429185" as="targetPoint" />
          </mxGeometry>
        </mxCell>
        <mxCell id="n5xv7NCP7jcm4QG3g1wA-41" value="" style="endArrow=classic;startArrow=classic;html=1;rounded=0;fontSize=18;" edge="1" parent="mjxQvoA_iEbA1KFyeB2W-1">
          <mxGeometry width="50" height="50" relative="1" as="geometry">
            <mxPoint x="172.89808917197453" y="70.91416309012875" as="sourcePoint" />
            <mxPoint x="355.71656050955414" y="70.91416309012875" as="targetPoint" />
          </mxGeometry>
        </mxCell>
      </root>
    </mxGraphModel>
  </diagram>
  <diagram id="zo8pNX5Q7jvCCAHn-m61" name="Page-2">
    <mxGraphModel dx="1038" dy="579" grid="1" gridSize="10" guides="1" tooltips="1" connect="1" arrows="1" fold="1" page="1" pageScale="1" pageWidth="1100" pageHeight="850" math="0" shadow="0">
      <root>
        <mxCell id="0" />
        <mxCell id="1" parent="0" />
        <mxCell id="cQW28gQmTNUCTfifAUsU-1" value="PPE DB" style="shape=datastore;whiteSpace=wrap;html=1;" vertex="1" parent="1">
          <mxGeometry x="763.5" y="370" width="110" height="90" as="geometry" />
        </mxCell>
        <mxCell id="cQW28gQmTNUCTfifAUsU-2" value="" style="shape=flexArrow;endArrow=classic;startArrow=classic;html=1;rounded=0;entryX=-0.009;entryY=0.454;entryDx=0;entryDy=0;entryPerimeter=0;" edge="1" parent="1">
          <mxGeometry width="100" height="100" relative="1" as="geometry">
            <mxPoint x="666.5" y="419" as="sourcePoint" />
            <mxPoint x="761.97" y="418.8800000000001" as="targetPoint" />
          </mxGeometry>
        </mxCell>
        <mxCell id="cQW28gQmTNUCTfifAUsU-3" value="" style="group" vertex="1" connectable="0" parent="1">
          <mxGeometry x="500" y="311" width="166" height="208" as="geometry" />
        </mxCell>
        <mxCell id="cQW28gQmTNUCTfifAUsU-4" value="" style="shape=note;whiteSpace=wrap;html=1;backgroundOutline=1;darkOpacity=0.05;labelBackgroundColor=none;fillStyle=solid;fontSize=18;fillColor=#d5e8d4;strokeColor=#82b366;" vertex="1" parent="cQW28gQmTNUCTfifAUsU-3">
          <mxGeometry y="48" width="166" height="112" as="geometry" />
        </mxCell>
        <mxCell id="cQW28gQmTNUCTfifAUsU-5" value="Data Access" style="rounded=0;whiteSpace=wrap;html=1;fillColor=#fff2cc;strokeColor=#d6b656;" vertex="1" parent="cQW28gQmTNUCTfifAUsU-3">
          <mxGeometry x="33" y="119.99612612612613" width="100" height="28.108108108108112" as="geometry" />
        </mxCell>
        <mxCell id="cQW28gQmTNUCTfifAUsU-6" value="Stored Procedure" style="rounded=0;whiteSpace=wrap;html=1;labelBackgroundColor=none;fillStyle=solid;fontSize=18;fillColor=none;fontStyle=1;verticalAlign=middle;strokeColor=none;" vertex="1" parent="cQW28gQmTNUCTfifAUsU-3">
          <mxGeometry x="26" y="59.999549549549556" width="114" height="39.351351351351354" as="geometry" />
        </mxCell>
        <mxCell id="cQW28gQmTNUCTfifAUsU-7" value="" style="group" vertex="1" connectable="0" parent="1">
          <mxGeometry x="200" y="160" width="200" height="150" as="geometry" />
        </mxCell>
        <mxCell id="cQW28gQmTNUCTfifAUsU-8" value="" style="shape=process;whiteSpace=wrap;html=1;backgroundOutline=1;labelBackgroundColor=#FF66FF;" vertex="1" parent="cQW28gQmTNUCTfifAUsU-7">
          <mxGeometry width="200" height="150" as="geometry" />
        </mxCell>
        <mxCell id="cQW28gQmTNUCTfifAUsU-9" value="API #1" style="text;html=1;strokeColor=none;fillColor=none;align=center;verticalAlign=middle;whiteSpace=wrap;rounded=0;labelBackgroundColor=none;fillStyle=solid;fontSize=18;" vertex="1" parent="cQW28gQmTNUCTfifAUsU-7">
          <mxGeometry x="71.5" y="10" width="60" height="30" as="geometry" />
        </mxCell>
        <mxCell id="cQW28gQmTNUCTfifAUsU-10" value="" style="group" vertex="1" connectable="0" parent="cQW28gQmTNUCTfifAUsU-7">
          <mxGeometry x="30" y="50" width="140" height="80" as="geometry" />
        </mxCell>
        <mxCell id="cQW28gQmTNUCTfifAUsU-11" value="" style="shape=note;whiteSpace=wrap;html=1;backgroundOutline=1;darkOpacity=0.05;labelBackgroundColor=#FFFFFF;fillStyle=solid;fillColor=#dae8fc;strokeColor=#6c8ebf;" vertex="1" parent="cQW28gQmTNUCTfifAUsU-10">
          <mxGeometry width="140" height="80" as="geometry" />
        </mxCell>
        <mxCell id="cQW28gQmTNUCTfifAUsU-12" value="Business logic #1" style="rounded=0;whiteSpace=wrap;html=1;labelBackgroundColor=none;fillStyle=solid;fillColor=#f8cecc;strokeColor=#b85450;" vertex="1" parent="cQW28gQmTNUCTfifAUsU-10">
          <mxGeometry x="19" y="40" width="100" height="26" as="geometry" />
        </mxCell>
        <mxCell id="cQW28gQmTNUCTfifAUsU-13" value="&lt;b&gt;&lt;font style=&quot;font-size: 21px;&quot;&gt;Java&lt;/font&gt;&lt;/b&gt;" style="rounded=0;whiteSpace=wrap;html=1;labelBackgroundColor=none;fillStyle=solid;strokeColor=none;fillColor=none;" vertex="1" parent="cQW28gQmTNUCTfifAUsU-10">
          <mxGeometry x="9" y="3.1000000000000227" width="120" height="23.9" as="geometry" />
        </mxCell>
        <mxCell id="cQW28gQmTNUCTfifAUsU-14" value="" style="group" vertex="1" connectable="0" parent="1">
          <mxGeometry x="200" y="340" width="200" height="150" as="geometry" />
        </mxCell>
        <mxCell id="cQW28gQmTNUCTfifAUsU-15" value="" style="group" vertex="1" connectable="0" parent="cQW28gQmTNUCTfifAUsU-14">
          <mxGeometry width="200" height="150" as="geometry" />
        </mxCell>
        <mxCell id="cQW28gQmTNUCTfifAUsU-16" value="" style="shape=process;whiteSpace=wrap;html=1;backgroundOutline=1;labelBackgroundColor=#FF66FF;" vertex="1" parent="cQW28gQmTNUCTfifAUsU-15">
          <mxGeometry width="200" height="150" as="geometry" />
        </mxCell>
        <mxCell id="cQW28gQmTNUCTfifAUsU-17" value="API #2" style="text;html=1;strokeColor=none;fillColor=none;align=center;verticalAlign=middle;whiteSpace=wrap;rounded=0;labelBackgroundColor=none;fillStyle=solid;fontSize=18;" vertex="1" parent="cQW28gQmTNUCTfifAUsU-15">
          <mxGeometry x="71.5" y="10" width="60" height="30" as="geometry" />
        </mxCell>
        <mxCell id="cQW28gQmTNUCTfifAUsU-18" value="" style="group" vertex="1" connectable="0" parent="cQW28gQmTNUCTfifAUsU-14">
          <mxGeometry x="30" y="50" width="140" height="80" as="geometry" />
        </mxCell>
        <mxCell id="cQW28gQmTNUCTfifAUsU-19" value="" style="shape=note;whiteSpace=wrap;html=1;backgroundOutline=1;darkOpacity=0.05;labelBackgroundColor=#FFFFFF;fillStyle=solid;fillColor=#dae8fc;strokeColor=#6c8ebf;" vertex="1" parent="cQW28gQmTNUCTfifAUsU-18">
          <mxGeometry width="140" height="80" as="geometry" />
        </mxCell>
        <mxCell id="cQW28gQmTNUCTfifAUsU-20" value="Business logic #2" style="rounded=0;whiteSpace=wrap;html=1;labelBackgroundColor=none;fillStyle=solid;fillColor=#f8cecc;strokeColor=#b85450;" vertex="1" parent="cQW28gQmTNUCTfifAUsU-18">
          <mxGeometry x="19" y="40" width="100" height="26" as="geometry" />
        </mxCell>
        <mxCell id="cQW28gQmTNUCTfifAUsU-21" value="&lt;b&gt;&lt;font style=&quot;font-size: 21px;&quot;&gt;Java&lt;/font&gt;&lt;/b&gt;" style="rounded=0;whiteSpace=wrap;html=1;labelBackgroundColor=none;fillStyle=solid;strokeColor=none;fillColor=none;" vertex="1" parent="cQW28gQmTNUCTfifAUsU-18">
          <mxGeometry x="9" y="3.1000000000000227" width="120" height="23.9" as="geometry" />
        </mxCell>
        <mxCell id="cQW28gQmTNUCTfifAUsU-22" value="" style="group" vertex="1" connectable="0" parent="1">
          <mxGeometry x="200" y="520" width="200" height="150" as="geometry" />
        </mxCell>
        <mxCell id="cQW28gQmTNUCTfifAUsU-23" value="" style="group" vertex="1" connectable="0" parent="cQW28gQmTNUCTfifAUsU-22">
          <mxGeometry width="200" height="150" as="geometry" />
        </mxCell>
        <mxCell id="cQW28gQmTNUCTfifAUsU-24" value="" style="shape=process;whiteSpace=wrap;html=1;backgroundOutline=1;labelBackgroundColor=#FF66FF;" vertex="1" parent="cQW28gQmTNUCTfifAUsU-23">
          <mxGeometry width="200" height="150" as="geometry" />
        </mxCell>
        <mxCell id="cQW28gQmTNUCTfifAUsU-25" value="API #3" style="text;html=1;strokeColor=none;fillColor=none;align=center;verticalAlign=middle;whiteSpace=wrap;rounded=0;labelBackgroundColor=none;fillStyle=solid;fontSize=18;" vertex="1" parent="cQW28gQmTNUCTfifAUsU-23">
          <mxGeometry x="71.5" y="10" width="60" height="30" as="geometry" />
        </mxCell>
        <mxCell id="cQW28gQmTNUCTfifAUsU-26" value="" style="group" vertex="1" connectable="0" parent="cQW28gQmTNUCTfifAUsU-22">
          <mxGeometry x="30" y="50" width="140" height="80" as="geometry" />
        </mxCell>
        <mxCell id="cQW28gQmTNUCTfifAUsU-27" value="" style="shape=note;whiteSpace=wrap;html=1;backgroundOutline=1;darkOpacity=0.05;labelBackgroundColor=#FFFFFF;fillStyle=solid;fillColor=#dae8fc;strokeColor=#6c8ebf;" vertex="1" parent="cQW28gQmTNUCTfifAUsU-26">
          <mxGeometry width="140" height="80" as="geometry" />
        </mxCell>
        <mxCell id="cQW28gQmTNUCTfifAUsU-28" value="Business logic #3" style="rounded=0;whiteSpace=wrap;html=1;labelBackgroundColor=none;fillStyle=solid;fillColor=#f8cecc;strokeColor=#b85450;" vertex="1" parent="cQW28gQmTNUCTfifAUsU-26">
          <mxGeometry x="19" y="40" width="100" height="26" as="geometry" />
        </mxCell>
        <mxCell id="cQW28gQmTNUCTfifAUsU-29" value="&lt;b&gt;&lt;font style=&quot;font-size: 21px;&quot;&gt;Java&lt;/font&gt;&lt;/b&gt;" style="rounded=0;whiteSpace=wrap;html=1;labelBackgroundColor=none;fillStyle=solid;strokeColor=none;fillColor=none;" vertex="1" parent="cQW28gQmTNUCTfifAUsU-26">
          <mxGeometry x="9" y="3.1000000000000227" width="120" height="23.9" as="geometry" />
        </mxCell>
        <mxCell id="cQW28gQmTNUCTfifAUsU-30" style="edgeStyle=orthogonalEdgeStyle;rounded=0;orthogonalLoop=1;jettySize=auto;html=1;fontSize=18;" edge="1" parent="1" source="cQW28gQmTNUCTfifAUsU-8" target="cQW28gQmTNUCTfifAUsU-4">
          <mxGeometry relative="1" as="geometry" />
        </mxCell>
        <mxCell id="cQW28gQmTNUCTfifAUsU-31" style="edgeStyle=orthogonalEdgeStyle;rounded=0;orthogonalLoop=1;jettySize=auto;html=1;entryX=0;entryY=0.5;entryDx=0;entryDy=0;entryPerimeter=0;fontSize=18;" edge="1" parent="1" source="cQW28gQmTNUCTfifAUsU-16" target="cQW28gQmTNUCTfifAUsU-4">
          <mxGeometry relative="1" as="geometry" />
        </mxCell>
        <mxCell id="cQW28gQmTNUCTfifAUsU-32" style="edgeStyle=orthogonalEdgeStyle;rounded=0;orthogonalLoop=1;jettySize=auto;html=1;fontSize=18;" edge="1" parent="1" source="cQW28gQmTNUCTfifAUsU-24">
          <mxGeometry relative="1" as="geometry">
            <mxPoint x="580" y="470" as="targetPoint" />
          </mxGeometry>
        </mxCell>
      </root>
    </mxGraphModel>
  </diagram>
</mxfile>
